<?xml version="1.0" standalone="no"?>
<!DOCTYPE svg PUBLIC "-//W3C//DTD SVG 20010904//EN"
 "http://www.w3.org/TR/2001/REC-SVG-20010904/DTD/svg10.dtd">
<svg version="1.0" xmlns="http://www.w3.org/2000/svg"
 width="636.000000pt" height="636.000000pt" viewBox="0 0 636.000000 636.000000"
 preserveAspectRatio="xMidYMid meet">
<metadata>
Created by potrace 1.14, written by Peter Selinger 2001-2017
</metadata>
<g transform="translate(0.000000,636.000000) scale(0.100000,-0.100000)"
fill="#000000" stroke="none">
<path d="M4505 5860 c-15 -24 18 -42 67 -38 33 4 52 1 59 -8 6 -8 8 -15 3 -15
-5 -1 -148 -1 -319 0 -318 2 -422 9 -558 38 -67 14 -96 15 -213 5 -136 -12
-179 -22 -154 -37 29 -18 89 -24 155 -14 92 13 264 14 276 2 12 -12 -48 -20
-226 -28 -71 -4 -186 -13 -254 -21 -79 -10 -189 -14 -300 -13 -97 2 -225 -2
-286 -9 -132 -14 -405 -16 -405 -2 0 12 34 17 239 34 96 8 178 19 183 24 16
16 -48 25 -129 17 -40 -4 -318 -1 -616 5 -495 11 -552 11 -656 -4 -78 -12
-165 -16 -272 -15 l-157 2 -89 -42 c-151 -73 -277 -163 -409 -295 -222 -223
-351 -462 -416 -773 -21 -103 -22 -133 -26 -690 l-3 -583 35 0 c19 0 37 4 40
8 3 4 115 7 250 6 146 -2 248 1 251 7 4 5 -1 16 -9 25 -9 8 -16 20 -16 25 0
14 50 11 51 -3 1 -7 2 -22 3 -33 0 -11 11 -24 23 -30 52 -23 17 -28 -143 -21
-113 4 -170 3 -179 -4 -9 -8 -15 -8 -20 0 -8 13 -52 13 -61 -1 -4 -7 -32 -9
-85 -4 -93 8 -139 -6 -139 -42 0 -24 14 -31 25 -12 5 7 29 8 71 4 44 -5 69 -4
78 4 8 7 36 11 63 9 36 -2 49 -7 51 -20 3 -16 -6 -18 -70 -19 -65 -1 -69 -2
-33 -10 22 -4 76 -8 120 -8 75 -1 78 0 57 15 -13 9 -29 13 -37 10 -18 -7 -20
8 -3 21 20 16 86 25 93 13 8 -13 182 -13 190 0 3 5 36 7 79 3 l73 -5 11 31
c12 34 36 40 68 16 22 -16 65 -20 79 -6 6 5 30 12 55 15 25 2 47 5 50 6 3 1
93 2 201 3 126 1 201 6 210 13 18 15 48 15 77 1 17 -8 28 -8 40 0 11 6 61 9
138 5 74 -3 124 -1 127 5 9 14 239 6 248 -9 6 -9 11 -8 23 1 12 10 30 12 64 6
26 -4 81 -6 124 -5 45 1 79 -3 83 -9 3 -6 31 -11 61 -11 41 0 54 4 54 15 0 22
44 19 65 -5 13 -15 31 -20 66 -20 l49 0 2 -387 3 -388 154 -5 154 -5 12 -40
c17 -56 62 -142 99 -188 41 -53 114 -107 141 -107 66 0 195 164 235 298 l13
42 153 0 154 0 2 343 3 342 44 3 c24 2 51 0 60 -3 9 -4 48 -6 88 -5 40 1 74
-3 77 -9 5 -7 13 -7 26 1 15 10 22 10 32 0 17 -17 45 -15 52 3 7 20 26 19 26
-1 0 -13 7 -15 34 -10 21 4 36 2 38 -4 6 -18 58 13 58 34 0 16 3 17 12 8 7 -7
37 -12 68 -12 80 0 130 -10 130 -26 0 -8 5 -14 10 -14 6 0 10 4 10 10 0 6 18
7 45 3 28 -3 50 -1 59 6 10 8 16 9 21 1 3 -5 32 -10 64 -10 49 0 59 3 64 19 8
30 -55 51 -156 51 -51 0 -87 4 -87 10 0 6 -17 10 -38 10 -21 0 -42 4 -47 9 -6
5 -48 12 -95 15 -46 4 -89 11 -94 16 -6 6 -34 10 -63 10 -58 0 -67 9 -29 30
19 10 32 10 53 2 15 -6 60 -14 98 -18 39 -3 75 -11 82 -16 6 -5 39 -9 72 -9
33 0 63 -5 66 -10 4 -5 30 -9 60 -9 30 0 57 -4 60 -10 3 -5 35 -10 70 -10 54
0 66 -3 75 -20 6 -11 9 -24 6 -29 -3 -5 1 -14 9 -21 7 -6 12 -17 9 -24 -7 -18
44 -27 68 -13 14 9 17 19 12 44 -5 26 -3 33 9 33 9 0 19 -4 22 -10 3 -5 22
-10 41 -10 19 0 37 -6 39 -12 4 -9 25 -12 71 -10 35 2 70 0 77 -5 7 -5 28 -10
47 -12 19 -1 37 -6 40 -11 4 -6 34 -10 69 -9 35 1 67 -3 74 -10 16 -16 68 -14
87 4 15 14 21 14 46 1 16 -8 48 -18 72 -24 38 -8 42 -7 42 9 0 14 -7 19 -29
19 -17 0 -32 4 -35 9 -3 4 -35 11 -72 15 -37 4 -76 12 -88 18 -23 13 -46 16
-176 24 -47 3 -89 10 -95 15 -5 5 -21 9 -36 9 -15 0 -29 5 -31 11 -2 6 -36 11
-80 12 -42 1 -80 5 -84 10 -4 4 -20 7 -35 7 -15 0 -31 4 -34 10 -3 5 -25 7
-49 4 -27 -4 -46 -2 -50 5 -5 7 -43 11 -101 11 -52 0 -96 4 -99 9 -3 4 -43 11
-88 15 -106 9 -122 11 -135 19 -7 4 -34 8 -62 8 -28 1 -51 6 -51 10 0 5 -13 9
-29 9 -17 0 -33 5 -36 10 -3 6 -39 10 -78 10 -40 0 -90 7 -112 15 -22 8 -72
14 -111 15 -47 0 -75 5 -83 13 -6 8 -8 17 -4 20 11 11 91 8 99 -4 4 -6 20 -8
39 -5 19 4 36 2 40 -4 3 -5 35 -10 70 -10 35 0 67 -4 70 -10 3 -6 53 -10 114
-10 65 0 111 -4 118 -11 6 -6 41 -14 77 -16 37 -3 69 -10 72 -14 3 -5 34 -9
69 -9 42 0 65 -4 68 -12 3 -10 7 -10 19 -1 10 9 18 9 25 2 6 -6 30 -10 52 -7
23 2 42 -1 44 -7 3 -7 15 -6 37 2 20 8 36 9 40 4 3 -5 43 -11 90 -14 47 -2
103 -9 125 -16 22 -7 61 -12 87 -11 25 0 49 -4 53 -10 3 -5 21 -10 40 -10 19
0 36 -4 39 -9 3 -5 16 -11 28 -14 13 -3 48 -12 78 -19 30 -7 90 -13 133 -13
53 1 81 -3 88 -12 6 -7 14 -11 18 -9 3 2 28 0 55 -4 28 -4 65 -3 85 2 29 8 37
7 47 -7 9 -12 22 -16 39 -13 16 3 25 1 25 -7 0 -23 48 -24 64 -1 13 18 15 19
15 4 1 -23 10 -23 28 -1 10 13 16 15 19 6 3 -7 12 -13 20 -13 8 0 14 -4 14 -8
0 -28 31 -46 89 -52 52 -5 61 -3 61 10 0 9 3 19 6 23 9 9 34 -3 34 -17 0 -17
52 -38 64 -26 13 13 53 13 61 0 22 -35 25 28 25 510 l0 520 -430 0 -430 0 0
550 0 550 240 0 240 0 0 -110 0 -110 -95 0 -95 0 0 -100 0 -99 88 -3 87 -3 3
-107 3 -108 -91 0 -90 0 0 -115 0 -114 103 -3 102 -3 3 -67 3 -68 57 0 c31 0
77 -5 101 -11 55 -12 72 -7 94 31 22 37 57 40 88 8 l22 -23 -7 120 c-22 378
-161 703 -414 967 -102 106 -210 193 -320 257 -57 33 -78 40 -142 44 -89 6
-172 -3 -178 -20 -2 -8 6 -13 22 -13 13 0 28 -4 31 -10 4 -6 -17 -10 -55 -10
-55 0 -61 2 -55 19 10 34 -18 43 -120 39 -52 -1 -95 0 -95 3 0 29 138 54 244
44 49 -5 76 -4 80 4 14 22 -79 31 -234 21 -89 -5 -240 1 -268 11 -21 8 -307
59 -330 59 -6 0 -14 -5 -17 -10z m-552 -107 c-7 -2 -19 -2 -25 0 -7 3 -2 5 12
5 14 0 19 -2 13 -5z m724 -39 c-3 -3 -12 -4 -19 -1 -8 3 -5 6 6 6 11 1 17 -2
13 -5z m881 -51 c-21 -2 -57 -2 -80 0 -24 2 -7 4 37 4 44 0 63 -2 43 -4z
m-2449 -72 c12 -8 9 -11 -12 -16 -31 -8 -61 0 -52 15 8 12 45 13 64 1z m2461
-41 c17 -11 4 -13 -65 -10 -68 3 -77 19 -10 20 33 0 67 -5 75 -10z m200 -20
c0 -5 -16 -10 -35 -10 -19 0 -35 5 -35 10 0 6 16 10 35 10 19 0 35 -4 35 -10z
m-210 -35 c0 -11 -12 -15 -50 -15 -76 0 -65 28 13 29 27 1 37 -3 37 -14z
m-2355 -6 c4 -6 4 -13 0 -17 -3 -4 -90 -10 -193 -13 -103 -4 -211 -12 -239
-18 -55 -11 -86 -6 -80 13 2 6 51 16 112 23 59 7 115 14 124 16 36 10 270 7
276 -4z m2455 -9 c0 -5 -4 -10 -9 -10 -6 0 -13 5 -16 10 -3 6 1 10 9 10 9 0
16 -4 16 -10z m-1606 -6 c35 -14 12 -24 -53 -24 -65 0 -90 8 -74 24 8 8 106 8
127 0z m-1414 -28 c0 -9 -30 -14 -35 -6 -4 6 3 10 14 10 12 0 21 -2 21 -4z
m441 -41 c-42 -25 -45 -25 -64 -8 -19 18 -19 18 14 24 19 4 48 7 64 8 29 1 29
0 -14 -24z m-161 -5 c0 -15 -27 -23 -47 -15 -17 7 -16 8 2 15 28 12 45 12 45
0z m2663 -1 c201 -17 198 -26 -8 -27 -194 -1 -389 17 -330 29 49 11 208 10
338 -2z m-4573 -413 l0 -355 38 -3 37 -3 3 -92 3 -91 -41 -7 -40 -7 0 -94 0
-94 -140 0 -140 0 0 95 0 95 -134 0 c-73 0 -148 3 -165 6 l-31 7 0 85 c0 82 4
99 110 416 60 182 114 346 121 364 l11 32 184 0 184 0 0 -354z m670 -100 c0
-402 2 -455 16 -467 11 -9 20 -10 32 -2 15 9 17 53 20 467 l2 456 151 0 151 0
-4 -453 -3 -453 -30 -59 c-57 -112 -158 -161 -314 -153 -148 7 -268 82 -299
186 -8 28 -12 172 -12 486 l0 446 145 0 145 0 0 -454z m761 262 l1 -193 39
120 c21 66 48 153 60 193 l21 72 134 0 c82 0 134 -4 134 -10 0 -5 -34 -112
-76 -237 -42 -125 -76 -237 -76 -248 0 -11 39 -149 86 -307 47 -158 86 -290
86 -293 0 -3 -67 -5 -149 -5 l-149 0 -47 193 c-26 105 -51 201 -56 212 -4 11
-8 -76 -8 -192 l-1 -213 -145 0 -145 0 0 550 0 550 145 0 145 0 1 -192z m970
166 c50 -23 89 -68 108 -124 18 -54 24 -178 12 -245 -12 -67 -49 -111 -101
-122 l-29 -5 42 -22 c53 -27 84 -73 92 -139 3 -29 5 -133 3 -232 l-3 -180
-132 -3 -133 -3 -1 198 c0 243 -5 273 -42 291 -16 8 -31 12 -33 9 -3 -2 -6
-114 -7 -248 l-2 -244 -145 0 -145 0 -5 185 c-3 102 -4 348 -2 548 l2 364 238
-4 c217 -3 241 -5 283 -24z m733 -1 c3 -16 19 -120 36 -233 58 -392 71 -476
90 -600 11 -69 22 -151 26 -182 l7 -58 -146 0 c-161 0 -157 -2 -157 69 0 21
-3 59 -6 85 l-7 47 -46 -3 -46 -3 -10 -95 -10 -95 -147 -3 c-136 -2 -148 -1
-148 15 0 10 16 135 35 278 48 354 105 788 105 798 0 4 94 7 209 7 l209 0 6
-27z m494 -520 l-3 -548 -142 -3 -143 -3 0 551 0 550 145 0 145 0 -2 -547z
m429 317 l72 -225 1 228 0 227 125 0 125 0 0 -550 0 -550 -125 0 c-108 0 -125
2 -133 18 -5 9 -38 115 -73 235 l-64 219 -3 -236 -2 -236 -120 0 -120 0 0 550
0 551 122 -3 122 -3 73 -225z m1116 -929 c8 -8 -7 -11 -57 -11 -62 0 -67 2
-55 16 15 18 92 15 112 -5z m147 0 c0 -18 -18 -21 -30 -6 -10 13 -9 15 9 15
11 0 21 -4 21 -9z m-410 -5 c0 -3 -4 -8 -10 -11 -5 -3 -10 -1 -10 4 0 6 5 11
10 11 6 0 10 -2 10 -4z m198 -132 c33 -23 18 -34 -46 -33 -31 1 -49 3 -39 6 9
2 17 11 17 18 0 13 14 23 35 24 6 1 21 -6 33 -15z m66 -5 c14 -7 23 -15 21
-19 -8 -12 -55 2 -55 16 0 17 2 17 34 3z m-5004 -349 c0 -5 -4 -10 -10 -10 -5
0 -10 5 -10 10 0 6 5 10 10 10 6 0 10 -4 10 -10z m110 -10 c0 -5 -4 -10 -10
-10 -5 0 -10 5 -10 10 0 6 5 10 10 10 6 0 10 -4 10 -10z m70 0 c0 -5 -4 -10
-9 -10 -6 0 -13 5 -16 10 -3 6 1 10 9 10 9 0 16 -4 16 -10z m167 -12 c-3 -8
-6 -5 -6 6 -1 11 2 17 5 13 3 -3 4 -12 1 -19z m53 8 c0 -3 -4 -8 -10 -11 -5
-3 -10 -1 -10 4 0 6 5 11 10 11 6 0 10 -2 10 -4z m130 -6 c0 -5 -4 -10 -10
-10 -5 0 -10 5 -10 10 0 6 5 10 10 10 6 0 10 -4 10 -10z m505 0 c3 -5 -3 -10
-14 -10 -12 0 -21 5 -21 10 0 6 6 10 14 10 8 0 18 -4 21 -10z m65 0 c0 -5 -7
-10 -15 -10 -8 0 -15 5 -15 10 0 6 7 10 15 10 8 0 15 -4 15 -10z m40 0 c0 -5
-5 -10 -11 -10 -5 0 -7 5 -4 10 3 6 8 10 11 10 2 0 4 -4 4 -10z m85 -10 c-3
-5 -10 -10 -16 -10 -5 0 -9 5 -9 10 0 6 7 10 16 10 8 0 12 -4 9 -10z m145 -3
c0 -22 -11 -27 -31 -14 -26 16 -24 27 6 27 14 0 25 -6 25 -13z m-1785 -7 c3
-5 1 -10 -4 -10 -6 0 -11 5 -11 10 0 6 2 10 4 10 3 0 8 -4 11 -10z m90 -10
c17 -19 17 -19 -4 -15 -30 5 -42 15 -36 26 9 14 20 11 40 -11z m1970 -10 c4
-6 -8 -10 -29 -10 -20 0 -36 5 -36 10 0 6 13 10 29 10 17 0 33 -4 36 -10z
m236 0 c55 0 89 -4 89 -10 0 -17 -202 -8 -208 9 -3 10 0 12 12 8 10 -4 58 -7
107 -7z m-2091 -10 c0 -5 -16 -10 -35 -10 -19 0 -35 5 -35 10 0 6 16 10 35 10
19 0 35 -4 35 -10z m795 -6 c400 -1 581 -8 599 -23 8 -7 17 -8 20 -3 7 11 142
15 213 6 44 -5 53 -10 53 -26 0 -19 -5 -19 -122 -14 -68 4 -253 11 -413 16
-159 6 -414 15 -565 20 -151 6 -319 8 -372 6 -57 -3 -100 -1 -103 4 -4 6 -24
10 -46 10 -21 0 -39 5 -39 10 0 7 78 8 238 3 130 -4 372 -8 537 -9z m1580 -4
c4 -6 13 -5 25 2 15 10 22 10 32 0 6 -6 29 -12 50 -12 21 0 38 -4 38 -10 0 -6
-42 -10 -105 -10 -84 0 -105 3 -105 14 0 21 54 34 65 16z m325 -41 c0 -16 -7
-19 -45 -19 -25 0 -45 4 -45 9 0 28 12 36 50 33 31 -3 40 -8 40 -23z m-860 12
c0 -5 9 -11 20 -14 34 -9 24 -30 -11 -23 -17 3 -38 6 -45 6 -20 0 -17 28 4 33
28 8 32 7 32 -2z m1250 -11 c0 -5 -9 -10 -20 -10 -11 0 -20 5 -20 10 0 6 9 10
20 10 11 0 20 -4 20 -10z m-910 -25 c-7 -14 -179 -10 -193 4 -9 9 15 11 93 9
66 -2 103 -7 100 -13z m218 -7 c8 -8 15 -8 26 1 10 8 16 9 21 1 3 -5 17 -10
30 -10 13 0 27 -4 30 -10 4 -6 -32 -10 -99 -10 -99 0 -106 1 -106 20 0 17 7
20 43 20 24 0 48 -5 55 -12z m912 2 c0 -5 -4 -10 -10 -10 -5 0 -10 5 -10 10 0
6 5 10 10 10 6 0 10 -4 10 -10z m-3830 -10 c0 -5 -7 -10 -15 -10 -8 0 -15 5
-15 10 0 6 7 10 15 10 8 0 15 -4 15 -10z m721 0 c90 0 71 -26 -26 -36 -51 -6
-85 3 -85 20 0 16 19 26 38 20 8 -2 40 -4 73 -4z m-936 -10 c4 -6 -8 -10 -29
-10 -20 0 -36 5 -36 10 0 6 13 10 29 10 17 0 33 -4 36 -10z m1050 0 c3 -5 -1
-10 -9 -10 -9 0 -16 5 -16 10 0 6 4 10 9 10 6 0 13 -4 16 -10z m40 0 c3 -5 1
-10 -4 -10 -6 0 -11 5 -11 10 0 6 2 10 4 10 3 0 8 -4 11 -10z m-1300 -9 c3 -5
1 -12 -5 -16 -5 -3 -10 1 -10 9 0 18 6 21 15 7z m275 5 c0 -3 -4 -8 -10 -11
-5 -3 -10 -1 -10 4 0 6 5 11 10 11 6 0 10 -2 10 -4z m1203 -8 c41 -20 33 -28
-27 -28 -59 0 -81 15 -44 29 32 13 40 13 71 -1z m2150 -3 c32 -14 17 -25 -33
-25 -43 0 -50 3 -50 19 0 16 6 19 33 17 17 -2 40 -6 50 -11z m-1632 -14 c22
-18 23 -20 6 -27 -16 -6 -126 2 -134 10 -2 2 -1 11 3 20 9 24 94 22 125 -3z
m1904 -11 c3 -5 35 -10 70 -10 35 0 67 -4 70 -10 3 -5 22 -10 41 -10 19 0 34
-4 34 -10 0 -6 -36 -10 -89 -10 -50 0 -93 5 -96 10 -3 6 -30 10 -60 10 -30 0
-57 5 -60 10 -11 18 6 30 45 30 21 0 42 -4 45 -10z m-3427 -17 c6 -19 -28 -29
-39 -12 -5 8 -9 18 -9 22 0 13 43 3 48 -10z m4227 7 c-3 -5 -13 -10 -21 -10
-8 0 -14 5 -14 10 0 6 9 10 21 10 11 0 17 -4 14 -10z m-4565 -9 c0 -6 -4 -13
-10 -16 -5 -3 -10 1 -10 9 0 9 5 16 10 16 6 0 10 -4 10 -9z m589 -5 c8 -10 9
-16 1 -21 -13 -8 -30 3 -30 21 0 18 14 18 29 0z m-439 -11 c0 -8 -4 -15 -10
-15 -5 0 -10 7 -10 15 0 8 5 15 10 15 6 0 10 -7 10 -15z m530 -5 c0 -5 -9 -10
-20 -10 -11 0 -20 5 -20 10 0 6 9 10 20 10 11 0 20 -4 20 -10z m136 -1 c7 -12
-15 -31 -31 -26 -5 2 -11 11 -13 20 -4 19 32 24 44 6z m2034 1 c0 -5 -7 -10
-15 -10 -8 0 -15 5 -15 10 0 6 7 10 15 10 8 0 15 -4 15 -10z m-2255 -49 c3 -5
2 -12 -3 -15 -12 -7 -92 6 -92 15 0 12 87 11 95 0z m2040 -1 c4 6 22 10 40 8
37 -2 36 0 51 -128 l6 -56 -53 -62 c-29 -34 -58 -62 -66 -62 -10 0 -13 32 -13
156 0 134 2 155 14 145 10 -8 16 -9 21 -1z m241 -22 c3 -5 12 -4 20 3 11 9 17
9 29 -1 8 -7 27 -10 41 -7 l27 5 -6 -57 c-8 -75 -40 -177 -90 -284 -40 -88
-41 -89 -71 -83 -48 10 -81 39 -84 76 -6 56 4 74 54 98 l47 23 -7 72 c-4 40
-9 95 -12 123 -6 52 -6 52 20 47 14 -3 29 -10 32 -15z m1224 12 c0 -5 -4 -10
-10 -10 -5 0 -10 5 -10 10 0 6 5 10 10 10 6 0 10 -4 10 -10z m-920 -20 c0 -6
20 -9 45 -8 25 0 50 -3 54 -8 5 -5 4 -46 -2 -96 -10 -80 -9 -89 8 -108 10 -11
23 -20 28 -20 6 0 21 -10 34 -22 27 -26 31 -82 8 -115 -19 -27 -91 -51 -106
-36 -19 19 -87 188 -107 268 -36 140 -36 135 -7 135 14 0 25 5 25 10 0 6 5 10
10 10 6 0 10 -5 10 -10z m1060 0 c0 -5 -5 -10 -11 -10 -5 0 -7 5 -4 10 3 6 8
10 11 10 2 0 4 -4 4 -10z m-795 -30 c3 -5 19 -10 36 -10 l29 0 0 -115 c0 -140
-10 -146 -84 -54 -47 58 -49 61 -43 111 4 27 12 56 18 64 13 16 35 18 44 4z
m-340 -326 l36 -89 -28 -23 c-44 -35 -61 -36 -104 -7 -46 30 -46 24 9 153 24
58 38 79 43 70 4 -8 24 -55 44 -104z m405 -155 l0 -129 -95 0 c-105 0 -96 -7
-109 80 -6 34 -4 36 44 59 46 22 65 39 123 110 10 12 22 19 27 16 6 -4 10 -62
10 -136z m-856 97 c15 -36 53 -68 110 -91 32 -14 36 -19 36 -53 0 -81 -1 -82
-106 -82 l-94 0 0 130 c0 123 1 130 20 130 13 0 25 -11 34 -34z m317 -166 c10
-14 19 -34 21 -44 2 -16 -4 -20 -39 -23 -50 -3 -57 5 -48 58 6 33 11 40 27 37
12 -2 29 -14 39 -28z m229 16 c0 -7 3 -28 6 -45 l7 -31 -47 0 c-56 0 -60 17
-17 61 32 31 51 37 51 15z m-200 -268 l0 -83 -21 25 c-27 33 -69 122 -63 132
3 4 23 8 45 8 l39 0 0 -82z m194 74 c11 -19 -63 -152 -86 -152 -9 0 -11 144
-1 153 9 10 81 9 87 -1z"/>
<path d="M675 4858 c-27 -106 -51 -201 -53 -210 -4 -16 3 -18 52 -18 l56 0 0
210 c0 116 -1 210 -3 210 -1 0 -25 -87 -52 -192z"/>
<path d="M3190 5143 c-3 -71 -1 -225 2 -228 3 -3 19 0 36 6 27 9 32 17 38 56
9 64 -2 145 -23 161 -18 13 -53 16 -53 5z"/>
<path d="M3937 5005 c-6 -27 -25 -172 -42 -312 l-6 -53 46 0 c53 0 50 -23 26
220 -11 116 -19 165 -24 145z"/>
<path d="M5370 5790 c0 -11 48 -25 56 -17 3 2 -9 9 -25 15 -18 7 -31 7 -31 2z"/>
<path d="M6170 4291 c0 -10 36 -21 44 -14 3 3 3 10 0 14 -7 12 -44 12 -44 0z"/>
<path d="M7 3263 c-4 -3 -7 -13 -7 -22 0 -14 13 -16 85 -13 48 2 98 10 113 18
24 12 19 13 -65 8 -59 -3 -93 -2 -98 5 -7 12 -19 14 -28 4z"/>
<path d="M5042 3247 c2 -14 11 -23 26 -25 31 -5 28 20 -4 35 -23 11 -25 10
-22 -10z"/>
<path d="M5680 3235 c0 -11 11 -15 36 -15 21 0 33 4 29 10 -4 6 -10 8 -15 5
-5 -3 -11 -1 -15 5 -10 15 -35 12 -35 -5z"/>
<path d="M4715 3150 c3 -5 22 -10 41 -10 19 0 34 5 34 10 0 6 -18 10 -41 10
-24 0 -38 -4 -34 -10z"/>
<path d="M5295 3115 c23 -8 135 -11 135 -3 0 4 -33 8 -72 7 -40 0 -68 -2 -63
-4z"/>
<path d="M5455 3110 c3 -5 8 -10 11 -10 2 0 4 5 4 10 0 6 -5 10 -11 10 -5 0
-7 -4 -4 -10z"/>
<path d="M5735 3100 c4 -6 11 -8 16 -5 14 9 11 15 -7 15 -8 0 -12 -5 -9 -10z"/>
<path d="M6145 3100 c3 -5 8 -10 11 -10 2 0 4 5 4 10 0 6 -5 10 -11 10 -5 0
-7 -4 -4 -10z"/>
<path d="M5740 3028 c0 -11 42 -27 53 -21 5 3 4 10 -2 16 -13 13 -51 17 -51 5z"/>
<path d="M5352 3019 c5 -17 48 -25 48 -10 0 6 -4 11 -9 11 -5 0 -17 3 -27 7
-12 4 -15 2 -12 -8z"/>
<path d="M5293 3002 l-22 -7 22 -21 c19 -17 26 -18 45 -8 l23 11 -21 6 c-12 3
-19 10 -15 16 7 12 1 12 -32 3z"/>
<path d="M5548 2983 c7 -3 16 -2 19 1 4 3 -2 6 -13 5 -11 0 -14 -3 -6 -6z"/>
<path d="M5726 2973 c-13 -13 7 -23 47 -23 24 0 37 4 32 9 -13 11 -71 22 -79
14z"/>
<path d="M6210 2940 c0 -5 7 -7 15 -4 8 4 21 2 28 -4 6 -5 33 -11 60 -13 38
-3 47 -1 47 12 0 13 -13 16 -75 17 -42 1 -75 -2 -75 -8z"/>
<path d="M5070 2910 c0 -5 5 -10 10 -10 6 0 10 5 10 10 0 6 -4 10 -10 10 -5 0
-10 -4 -10 -10z"/>
<path d="M212 1992 c-9 -7 -12 -78 -10 -323 l3 -314 83 -3 82 -3 0 136 0 135
25 0 25 0 0 -135 0 -135 85 0 85 0 -2 323 -3 322 -60 3 c-108 6 -105 8 -105
-118 0 -91 -3 -110 -15 -110 -8 0 -18 -1 -22 -2 -5 -2 -10 49 -13 112 l-5 115
-70 3 c-38 1 -76 -2 -83 -6z"/>
<path d="M672 1993 l-23 -5 3 -266 c3 -299 6 -310 74 -353 56 -34 165 -38 224
-7 82 42 85 54 88 357 3 212 1 265 -10 272 -15 10 -119 12 -142 3 -14 -5 -16
-37 -16 -253 0 -135 -3 -256 -6 -268 -5 -19 -27 -31 -36 -20 -1 1 -5 124 -8
272 l-5 270 -60 1 c-33 1 -70 0 -83 -3z"/>
<path d="M1113 1993 c-10 -4 -13 -78 -13 -324 l0 -320 73 3 72 3 5 175 5 175
25 -175 25 -175 52 -3 c62 -4 54 -23 84 203 11 88 22 162 25 164 2 2 4 -80 4
-183 l0 -187 73 3 72 3 3 314 c2 245 -1 316 -10 323 -19 12 -196 7 -207 -6 -5
-6 -14 -64 -21 -128 -7 -65 -16 -118 -20 -118 -3 0 -14 55 -23 122 -10 70 -22
125 -29 130 -13 8 -172 9 -195 1z"/>
<path d="M1732 1983 c-5 -10 -12 -47 -16 -83 -4 -36 -20 -161 -37 -278 -16
-117 -29 -226 -29 -242 l0 -30 85 0 85 0 0 29 c0 16 3 43 6 60 6 27 11 32 33
29 24 -3 26 -8 31 -58 l5 -55 79 -3 c44 -2 82 1 87 5 8 9 -81 611 -94 631 -6
8 -41 12 -117 12 -94 0 -111 -2 -118 -17z m143 -320 l6 -83 -25 0 c-31 0 -32
9 -14 144 10 78 13 86 19 56 4 -19 10 -72 14 -117z"/>
<path d="M2113 1993 c-10 -4 -13 -78 -13 -324 l0 -320 68 3 67 3 5 129 c5 129
5 130 18 80 7 -27 25 -86 39 -131 l26 -83 73 0 74 0 0 319 c0 282 -2 320 -16
325 -22 9 -97 7 -111 -2 -8 -5 -13 -49 -15 -137 l-3 -130 -42 131 c-27 82 -49
134 -59 138 -18 7 -93 7 -111 -1z"/>
<path d="M2542 1992 c-9 -7 -12 -78 -10 -323 l3 -314 83 -3 82 -3 -2 323 -3
323 -70 3 c-38 1 -76 -1 -83 -6z"/>
<path d="M2752 1991 c-9 -5 -12 -26 -10 -67 l3 -59 48 -3 47 -3 0 -255 0 -255
83 3 82 3 3 252 2 252 48 3 47 3 3 59 c2 41 -1 62 -10 67 -17 11 -329 11 -346
0z"/>
<path d="M3166 1984 c-7 -7 -20 -77 -30 -156 -10 -78 -28 -215 -40 -303 -13
-88 -21 -163 -19 -167 2 -5 42 -8 89 -8 l84 0 0 38 c0 65 9 83 39 80 24 -3 26
-8 31 -58 l5 -55 79 -3 c44 -2 82 1 86 5 8 9 -81 612 -93 631 -12 18 -213 14
-231 -4z m138 -326 l7 -78 -27 0 -27 0 7 73 c4 39 10 90 13 112 l7 40 7 -35
c4 -19 10 -70 13 -112z"/>
<path d="M3532 1992 c-9 -7 -12 -78 -10 -323 l3 -314 83 -3 82 -3 0 146 c0
136 1 145 19 145 28 0 31 -18 31 -161 l0 -129 81 0 81 0 -4 141 -3 141 -32 28
c-30 27 -31 29 -12 35 73 24 59 239 -18 278 -32 16 -280 32 -301 19z m206
-174 c2 -48 0 -58 -16 -67 -28 -15 -32 -6 -32 66 0 61 1 64 23 61 19 -3 22
-10 25 -60z"/>
<path d="M3973 1994 c-10 -4 -13 -79 -13 -325 l0 -319 85 0 85 0 -2 323 -3
322 -70 2 c-38 1 -76 -1 -82 -3z"/>
<path d="M4254 1992 c-7 -4 -22 -81 -34 -172 -11 -91 -30 -227 -41 -303 -10
-75 -19 -144 -19 -152 0 -12 16 -15 85 -15 l84 0 5 33 c3 17 7 43 8 57 2 19
10 26 29 28 26 3 27 1 34 -57 l7 -61 84 0 c49 0 84 4 84 10 0 10 -29 208 -70
480 -11 74 -22 141 -25 148 -5 13 -211 18 -231 4z m135 -364 c1 -41 -2 -48
-18 -48 -11 0 -22 4 -25 9 -6 9 10 160 21 201 7 26 19 -63 22 -162z"/>
<path d="M4617 1993 c-4 -3 -7 -150 -7 -325 l0 -318 70 0 70 0 1 138 1 137 20
-65 c11 -36 30 -96 42 -135 l23 -70 71 -3 72 -3 0 326 0 325 -32 0 c-18 0 -50
-3 -70 -6 l-38 -7 0 -131 -1 -131 -40 125 c-23 69 -46 131 -51 138 -11 13
-119 17 -131 5z"/>
<path d="M5251 1991 c-9 -6 -25 -99 -52 -297 -21 -159 -39 -301 -39 -316 l0
-28 85 0 84 0 7 61 c6 57 8 60 33 57 22 -3 26 -9 29 -38 6 -82 4 -80 92 -80
43 0 81 3 83 8 9 15 -88 623 -101 631 -18 11 -204 13 -221 2z m134 -333 l7
-78 -26 0 c-30 0 -30 -4 -14 132 13 114 18 105 33 -54z"/>
<path d="M5612 1992 c-9 -7 -12 -78 -10 -323 l3 -314 83 -3 82 -3 -2 323 -3
323 -70 3 c-38 1 -76 -2 -83 -6z"/>
<path d="M5848 1994 c-5 -4 -8 -151 -8 -327 l0 -319 158 4 c172 3 205 13 220
67 4 14 7 130 7 256 0 224 -1 231 -23 262 -15 21 -36 36 -60 42 -49 12 -285
25 -294 15z m210 -311 c2 -164 0 -193 -14 -207 -8 -9 -20 -16 -25 -16 -5 0 -9
88 -9 211 l0 210 23 -3 c22 -3 22 -4 25 -195z"/>
</g>
</svg>
